[Header]
FileType HTR
DataType HTRS
FileVersion 1
NumSegments 64
NumFrames 3
DataFrameRate 30
EulerRotationOrder ZYX
CalibrationUnits mm
RotationUnits Degrees
GlobalAxisofGravity Y
BoneLengthAxis Y
ScaleFactor 1.0
[SegmentNames&Hierarchy]
Hips	GLOBAL
Spine	Hips
Spine1	Spine
Spine2	Spine1
Neck	Spine2
Head	Neck
LeftEye	Head
RightEye	Head
LeftShoulder	Spine2
LeftArm	LeftShoulder
LeftForeArm	LeftArm
LeftHand	LeftForeArm
LeftHandThumb1	LeftHand
LeftHandThumb2	LeftHandThumb1
LeftHandThumb3	LeftHandThumb2
LeftHandThumb4	LeftHandThumb3
LeftHandIndex1	LeftHand
LeftHandIndex2	LeftHandIndex1
LeftHandIndex3	LeftHandIndex2
LeftHandIndex4	LeftHandIndex3
LeftHandMiddle1	LeftHand
LeftHandMiddle2	LeftHandMiddle1
LeftHandMiddle3	LeftHandMiddle2
LeftHandMiddle4	LeftHandMiddle3
LeftHandRing1	LeftHand
LeftHandRing2	LeftHandRing1
LeftHandRing3	LeftHandRing2
LeftHandRing4	LeftHandRing3
LeftHandPinky1	LeftHand
LeftHandPinky2	LeftHandPinky1
LeftHandPinky3	LeftHandPinky2
LeftHandPinky4	LeftHandPinky3
RightShoulder	Spine2
RightArm	RightShoulder
RightForeArm	RightArm
RightHand	RightForeArm
RightHandPinky1	RightHand
RightHandPinky2	RightHandPinky1
RightHandPinky3	RightHandPinky2
RightHandPinky4	RightHandPinky3
RightHandRing1	RightHand
RightHandRing2	RightHandRing1
RightHandRing3	RightHandRing2
RightHandRing4	RightHandRing3
RightHandMiddle1	RightHand
RightHandMiddle2	RightHandMiddle1
RightHandMiddle3	RightHandMiddle2
RightHandMiddle4	RightHandMiddle3
RightHandIndex1	RightHand
RightHandIndex2	RightHandIndex1
RightHandIndex3	RightHandIndex2
RightHandIndex4	RightHandIndex3
RightHandThumb1	RightHand
RightHandThumb2	RightHandThumb1
RightHandThumb3	RightHandThumb2
RightHandThumb4	RightHandThumb3
LeftUpLeg	Hips
LeftLeg	LeftUpLeg
LeftFoot	LeftLeg
LeftToeBase	LeftFoot
RightUpLeg	Hips
RightLeg	RightUpLeg
RightFoot	RightLeg
RightToeBase	RightFoot
[BasePosition]
Hips	0	0	0	0	0	0	1
Spine	0	0	0	0	0	0	1
Spine1	0	0	0	0	0	0	1
Spine2	0	0	0	0	0	0	1
Neck	0	0	0	0	0	0	1
Head	0	0	0	0	0	0	1
LeftEye	0	0	0	0	0	0	1
RightEye	0	0	0	0	0	0	1
LeftShoulder	0	0	0	0	0	0	1
LeftArm	0	0	0	0	0	0	1
LeftForeArm	0	0	0	0	0	0	1
LeftHand	0	0	0	0	0	0	1
LeftHandThumb1	0	0	0	0	0	0	1
LeftHandThumb2	0	0	0	0	0	0	1
LeftHandThumb3	0	0	0	0	0	0	1
LeftHandThumb4	0	0	0	0	0	0	1
LeftHandIndex1	0	0	0	0	0	0	1
LeftHandIndex2	0	0	0	0	0	0	1
LeftHandIndex3	0	0	0	0	0	0	1
LeftHandIndex4	0	0	0	0	0	0	1
LeftHandMiddle1	0	0	0	0	0	0	1
LeftHandMiddle2	0	0	0	0	0	0	1
LeftHandMiddle3	0	0	0	0	0	0	1
LeftHandMiddle4	0	0	0	0	0	0	1
LeftHandRing1	0	0	0	0	0	0	1
LeftHandRing2	0	0	0	0	0	0	1
LeftHandRing3	0	0	0	0	0	0	1
LeftHandRing4	0	0	0	0	0	0	1
LeftHandPinky1	0	0	0	0	0	0	1
LeftHandPinky2	0	0	0	0	0	0	1
LeftHandPinky3	0	0	0	0	0	0	1
LeftHandPinky4	0	0	0	0	0	0	1
RightShoulder	0	0	0	0	0	0	1
RightArm	0	0	0	0	0	0	1
RightForeArm	0	0	0	0	0	0	1
RightHand	0	0	0	0	0	0	1
RightHandPinky1	0	0	0	0	0	0	1
RightHandPinky2	0	0	0	0	0	0	1
RightHandPinky3	0	0	0	0	0	0	1
RightHandPinky4	0	0	0	0	0	0	1
RightHandRing1	0	0	0	0	0	0	1
RightHandRing2	0	0	0	0	0	0	1
RightHandRing3	0	0	0	0	0	0	1
RightHandRing4	0	0	0	0	0	0	1
RightHandMiddle1	0	0	0	0	0	0	1
RightHandMiddle2	0	0	0	0	0	0	1
RightHandMiddle3	0	0	0	0	0	0	1
RightHandMiddle4	0	0	0	0	0	0	1
RightHandIndex1	0	0	0	0	0	0	1
RightHandIndex2	0	0	0	0	0	0	1
RightHandIndex3	0	0	0	0	0	0	1
RightHandIndex4	0	0	0	0	0	0	1
RightHandThumb1	0	0	0	0	0	0	1
RightHandThumb2	0	0	0	0	0	0	1
RightHandThumb3	0	0	0	0	0	0	1
RightHandThumb4	0	0	0	0	0	0	1
LeftUpLeg	0	0	0	0	0	0	1
LeftLeg	0	0	0	0	0	0	1
LeftFoot	0	0	0	0	0	0	1
LeftToeBase	0	0	0	0	0	0	1
RightUpLeg	0	0	0	0	0	0	1
RightLeg	0	0	0	0	0	0	1
RightFoot	0	0	0	0	0	0	1
RightToeBase	0	0	0	0	0	0	1
[Hips]
21	1161.546753	982.7859497	15.0046587	11.00876141	75.90583038	5.206041336	1.0
22	1223.655518	962.7093506	15.75159836	21.68966866	80.10753632	16.05118752	1.0
23	1283.151611	944.5001831	14.95873642	34.19225693	82.66534424	28.56149864	1.0
[Spine]
21	0	101.8159943	1.315000057	4.898559093	-15.20062828	0.01099741459	1.0
22	0	101.8159943	1.315000057	4.714565277	-18.6583004	-0.5093427896	1.0
23	0	101.8159943	1.315000057	4.921530724	-20.9739151	-0.7367860079	1.0
[Spine1]
21	0	100.8349991	-10.00800037	3.340123415	-6.351698399	0.4701571167	1.0
22	0	100.8349991	-10.00800037	3.124349594	-6.892858028	0.2684314549	1.0
23	0	100.8349991	-10.00800037	3.211303473	-7.212571621	0.250772208	1.0
[Spine2]
21	0	91	-13.73399925	3.261279821	-6.395820618	0.5156596303	1.0
22	0	91	-13.73399925	3.041795969	-6.934831619	0.3449117243	1.0
23	0	91	-13.73399925	3.12203002	-7.255018234	0.320799768	1.0
[Neck]
21	0	166.7169952	-25.16200066	4.6155653	-5.544818878	-1.783479929	1.0
22	0	166.7169952	-25.16200066	4.294009209	-5.652420998	-1.77531898	1.0
23	0	166.7169952	-25.16200066	4.002009392	-5.772825718	-1.662278295	1.0
[Head]
21	0	96.17900085	16.84999847	-11.43296242	-34.20112991	13.42253971	1.0
22	0	96.17900085	16.84999847	-11.83047485	-34.80287933	14.04240799	1.0
23	0	96.17900085	16.84999847	-12.88472843	-35.1411171	14.57032967	1.0
[LeftEye]
21	30.6760006	64.09500122	92.83599854	0	0	0	1.0
22	30.6760006	64.09500122	92.83599854	0	0	0	1.0
23	30.6760006	64.09500122	92.83599854	0	0	0	1.0
[RightEye]
21	-30.6760006	64.09500122	92.83499908	0	0	0	1.0
22	-30.6760006	64.09500122	92.83499908	0	0	0	1.0
23	-30.6760006	64.09500122	92.83499908	0	0	0	1.0
[LeftShoulder]
21	45.70400238	109.4599991	-26.28000069	-2.951955557	-9.311143875	-8.937731743	1.0
22	45.70400238	109.4599991	-26.28000069	-2.913141489	-10.06265259	-9.086174965	1.0
23	45.70400238	109.4599991	-26.28000069	-2.724197865	-10.42599964	-9.306147575	1.0
[LeftArm]
21	105.923996	-5.24600029	-22.32099915	30.24399376	-21.93590546	-55.36450577	1.0
22	105.923996	-5.24600029	-22.32099915	33.37359619	-24.35155296	-54.10328674	1.0
23	105.923996	-5.24600029	-22.32099915	36.23004913	-27.10140419	-54.17188644	1.0
[LeftForeArm]
21	278.414978	-0.0009999999311	0	-1.534257592e-07	-20.97366142	-0.000211899096	1.0
22	278.414978	-0.0009999999311	0	5.445562579e-07	-22.52732658	-0.000200755414	1.0
23	278.414978	-0.0009999999311	0	-2.940916147e-06	-23.10754585	-0.00018683284	1.0
[LeftHand]
21	283.2879944	0	0	-0.5158362389	1.570179105	24.98277664	1.0
22	283.2879944	0	0	-1.442994714	0.7122942209	25.3124485	1.0
23	283.2879944	0	0	-2.596830606	-1.487478256	24.67250061	1.0
[LeftHandThumb1]
21	24.6609993	-15.75	26.8239994	0.9464570284	1.151123047	0.2541034818	1.0
22	24.6609993	-15.75	26.8239994	0.9464570284	1.151123047	0.2541034818	1.0
23	24.6609993	-15.75	26.8239994	0.9464570284	1.151123047	0.2541034818	1.0
[LeftHandThumb2]
21	32.29800034	-18.64699936	18.64699936	9.977018356	3.252372742	18.9859848	1.0
22	32.29800034	-18.64699936	18.64699936	8.693039894	2.174189091	18.70402145	1.0
23	32.29800034	-18.64699936	18.64699936	9.920086861	1.102978826	17.95949554	1.0
[LeftHandThumb3]
21	26.52600098	-15.31499958	15.31499958	-1.985794425	-10.38651657	21.89914894	1.0
22	26.52600098	-15.31499958	15.31499958	-1.630822182	-9.5733881	21.56214905	1.0
23	26.52600098	-15.31499958	15.31499958	-1.762126446	-9.940278053	21.41695023	1.0
[LeftHandThumb4]
21	19.54599953	-11.28499985	11.28499985	0	0	0	1.0
22	19.54599953	-11.28499985	11.28499985	0	0	0	1.0
23	19.54599953	-11.28499985	11.28499985	0	0	0	1.0
[LeftHandIndex1]
21	91.09299469	-5.170999527	22.60099792	-1.283744574	-2.331536055	-22.86364174	1.0
22	91.09299469	-5.170999527	22.60099792	-1.198120832	-2.568359137	-21.73012924	1.0
23	91.09299469	-5.170999527	22.60099792	-1.200201869	-1.997590423	-22.01214409	1.0
[LeftHandIndex2]
21	36.76399994	0	0	-0.1272455603	1.212920666	-11.97778988	1.0
22	36.76399994	0	0	-0.1270861626	1.212175131	-11.97026634	1.0
23	36.76399994	0	0	-0.1271870583	1.212645531	-11.97494602	1.0
[LeftHandIndex3]
21	28.83100128	0	0	-0.1324581355	1.237196207	-12.22120953	1.0
22	28.83100128	0	0	-0.1323041469	1.236489296	-12.21411991	1.0
23	28.83100128	0	0	-0.1323996931	1.23693645	-12.2186203	1.0
[LeftHandIndex4]
21	23.92700005	0	0	0	0	0	1.0
22	23.92700005	0	0	0	0	0	1.0
23	23.92700005	0	0	0	0	0	1.0
[LeftHandMiddle1]
21	95.33399963	0	0	-1.855182648	2.626559496	-29.46817207	1.0
22	95.33399963	0	0	-1.766908884	2.457172155	-28.4405117	1.0
23	95.33399963	0	0	-1.780849934	2.715854645	-28.60448074	1.0
[LeftHandMiddle2]
21	36.98199844	0	0	-0.3008128405	1.85060668	-18.46365929	1.0
22	36.98199844	0	0	-0.3006844521	1.850234866	-18.45981026	1.0
23	36.98199844	0	0	-0.3013604283	1.852251172	-18.48066711	1.0
[LeftHandMiddle3]
21	29.50900078	0	0	-0.1078000739	1.117338777	-11.02129364	1.0
22	29.50900078	0	0	-0.107730113	1.11696136	-11.01751709	1.0
23	29.50900078	0	0	-0.1081352755	1.119058132	-11.03844643	1.0
[LeftHandMiddle4]
21	28.3390007	0	0	0	0	0	1.0
22	28.3390007	0	0	0	0	0	1.0
23	28.3390007	0	0	0	0	0	1.0
[LeftHandRing1]
21	91.04499817	-0.4390000105	-18.65100098	-2.013696432	7.161991119	-31.27265167	1.0
22	91.04499817	-0.4390000105	-18.65100098	-1.91781199	6.933124542	-30.17593002	1.0
23	91.04499817	-0.4390000105	-18.65100098	-1.912861824	6.830151081	-30.11974144	1.0
[LeftHandRing2]
21	31.54000092	0	0	-0.4744054377	2.305956602	-23.2476387	1.0
22	31.54000092	0	0	-0.4713242948	2.298784256	-23.17100143	1.0
23	31.54000092	0	0	-0.4669024646	2.288421154	-23.06041336	1.0
[LeftHandRing3]
21	29.37700081	0	0	-0.3418059051	1.969058871	-19.69363022	1.0
22	29.37700081	0	0	-0.3391870558	1.961736917	-19.61731339	1.0
23	29.37700081	0	0	-0.335398525	1.951081991	-19.50633049	1.0
[LeftHandRing4]
21	26.47500038	0	0	0	0	0	1.0
22	26.47500038	0	0	0	0	0	1.0
23	26.47500038	0	0	0	0	0	1.0
[LeftHandPinky1]
21	80.77799988	-4.887000084	-38.06099701	-2.409470081	4.0240798	-35.609272	1.0
22	80.77799988	-4.887000084	-38.06099701	-2.374124765	3.699472427	-35.23350525	1.0
23	80.77799988	-4.887000084	-38.06099701	-2.385655403	3.61761117	-35.35982895	1.0
[LeftHandPinky2]
21	36	0	0	-0.503528893	2.372543335	-23.96110725	1.0
22	36	0	0	-0.4978978038	2.359848261	-23.82475281	1.0
23	36	0	0	-0.4906906486	2.343476534	-23.64910889	1.0
[LeftHandPinky3]
21	21.14200211	0	0	-0.2214362174	1.593393445	-15.82270908	1.0
22	21.14200211	0	0	-0.2175284177	1.57953918	-15.68148804	1.0
23	21.14200211	0	0	-0.2125148773	1.56157434	-15.49856567	1.0
[LeftHandPinky4]
21	19.75699997	0	0	0	0	0	1.0
22	19.75699997	0	0	0	0	0	1.0
23	19.75699997	0	0	0	0	0	1.0
[RightShoulder]
21	-45.70000076	109.4620056	-26.28000069	1.363895297	-6.487514019	7.436330318	1.0
22	-45.70000076	109.4620056	-26.28000069	1.353010774	-7.168263912	7.406908989	1.0
23	-45.70000076	109.4620056	-26.28000069	1.308959007	-7.437968731	7.456153393	1.0
[RightArm]
21	-105.9280014	-5.248000145	-22.32099915	16.38047218	-1.234909058	65.96439362	1.0
22	-105.9280014	-5.248000145	-22.32099915	15.13969612	-3.581552982	66.18045044	1.0
23	-105.9280014	-5.248000145	-22.32099915	14.29273987	-3.908135653	66.20981598	1.0
[RightForeArm]
21	-278.414978	0	0	-8.000771459e-07	23.08564377	-4.047109883e-07	1.0
22	-278.414978	0	0	-1.094843083e-05	20.50997734	5.943715223e-06	1.0
23	-278.414978	0	0	-1.279825028e-05	15.8770237	-7.895435488e-07	1.0
[RightHand]
21	-283.2879944	0	0.0009999999311	7.671833992	0.2265156806	-1.744296193	1.0
22	-283.2879944	0	0.0009999999311	7.566709042	-2.161305189	-1.509105563	1.0
23	-283.2879944	0	0.0009999999311	6.937106133	-2.501154661	-1.698269486	1.0
[RightHandPinky1]
21	-80.76699829	-4.885000229	-38.06000137	-1.637158513	-2.393027782	28.71729851	1.0
22	-80.76699829	-4.885000229	-38.06000137	-1.639557362	-2.184507132	28.75530624	1.0
23	-80.76699829	-4.885000229	-38.06000137	-1.603237271	-2.253233433	28.26049423	1.0
[RightHandPinky2]
21	-36	0	0.0009999999311	-0.3668906391	-1.808092356	22.9586277	1.0
22	-36	0	0.0009999999311	-0.3679203391	-1.810538411	22.99151802	1.0
23	-36	0	0.0009999999311	-0.3683401048	-1.811529636	23.00479507	1.0
[RightHandPinky3]
21	-21.14200211	0	0	-0.4199734628	-1.928668499	24.56737518	1.0
22	-21.14200211	0	0	-0.4201840162	-1.929138184	24.57361603	1.0
23	-21.14200211	0	0	-0.4224544466	-1.934084296	24.64098167	1.0
[RightHandPinky4]
21	-19.75699997	0	0	0	0	0	1.0
22	-19.75699997	0	0	0	0	0	1.0
23	-19.75699997	0	0	0	0	0	1.0
[RightHandRing1]
21	-91.03599548	-0.4390000105	-18.65100098	-1.929841399	-2.620204926	32.7763443	1.0
22	-91.03599548	-0.4390000105	-18.65100098	-1.89074254	-2.702329159	32.26887512	1.0
23	-91.03599548	-0.4390000105	-18.65100098	-1.838685513	-2.832615376	31.58894157	1.0
[RightHandRing2]
21	-31.54000092	0	0	-0.6902534962	-2.434213638	31.65863991	1.0
22	-31.54000092	0	0	-0.6830660105	-2.422511339	31.48906708	1.0
23	-31.54000092	0	0	-0.6774052978	-2.413248777	31.35477638	1.0
[RightHandRing3]
21	-29.37700081	0	0	-0.7675313354	-2.555193901	33.43416977	1.0
22	-29.37700081	0	0	-0.759890914	-2.543576956	33.26216888	1.0
23	-29.37700081	0	0	-0.7538585067	-2.534359455	33.12598419	1.0
[RightHandRing4]
21	-26.47500038	0	0	0	0	0	1.0
22	-26.47500038	0	0	0	0	0	1.0
23	-26.47500038	0	0	0	0	0	1.0
[RightHandMiddle1]
21	-95.32500458	0	0	-2.17398715	-1.441367984	35.90216827	1.0
22	-95.32500458	0	0	-2.146566391	-1.547295451	35.55564117	1.0
23	-95.32500458	0	0	-2.090542793	-1.714821935	34.84534073	1.0
[RightHandMiddle2]
21	-36.98199844	0	0	-0.4647576213	-2.023705959	25.86572456	1.0
22	-36.98199844	0	0	-0.4585403204	-2.010861874	25.68932343	1.0
23	-36.98199844	0	0	-0.4516974688	-1.996576786	25.49360847	1.0
[RightHandMiddle3]
21	-29.50900078	0	0	-0.3279501498	-1.715253711	21.67194748	1.0
22	-29.50900078	0	0	-0.3226423562	-1.701820493	21.49359322	1.0
23	-29.50900078	0	0	-0.3168057501	-1.686919928	21.29569244	1.0
[RightHandMiddle4]
21	-28.3390007	0	0.0009999999311	0	0	0	1.0
22	-28.3390007	0	0.0009999999311	0	0	0	1.0
23	-28.3390007	0	0.0009999999311	0	0	0	1.0
[RightHandIndex1]
21	-91.08300018	-5.167999744	22.60099792	-1.099763989	6.470460415	22.93024635	1.0
22	-91.08300018	-5.167999744	22.60099792	-1.102426529	6.501997471	22.91756058	1.0
23	-91.08300018	-5.167999744	22.60099792	-1.066957116	6.432899952	22.53985214	1.0
[RightHandIndex2]
21	-36.76399994	0	0	-0.5752149224	-2.237086773	28.83642578	1.0
22	-36.76399994	0	0	-0.5715689659	-2.230468273	28.74294281	1.0
23	-36.76399994	0	0	-0.5681257248	-2.224177361	28.65431023	1.0
[RightHandIndex3]
21	-28.83100128	0	0	-0.2379378527	-1.466683626	18.42875671	1.0
22	-28.83100128	0	0	-0.2355322093	-1.459443212	18.3343277	1.0
23	-28.83100128	0	0	-0.2332662791	-1.452573419	18.24484634	1.0
[RightHandIndex4]
21	-23.92700005	0	0	0	0	0	1.0
22	-23.92700005	0	0	0	0	0	1.0
23	-23.92700005	0	0	0	0	0	1.0
[RightHandThumb1]
21	-24.64799881	-15.72700024	26.82600021	30.15343666	21.14214134	-10.25145817	1.0
22	-24.64799881	-15.72700024	26.82600021	30.15343666	21.14214134	-10.25145817	1.0
23	-24.64799881	-15.72700024	26.82600021	30.15343666	21.14214134	-10.25145817	1.0
[RightHandThumb2]
21	-32.29800034	-18.64699936	18.64699936	12.05569553	-23.97880745	0.9499874115	1.0
22	-32.29800034	-18.64699936	18.64699936	12.41857624	-22.67344284	1.165051222	1.0
23	-32.29800034	-18.64699936	18.64699936	12.78380871	-22.15163994	1.346237063	1.0
[RightHandThumb3]
21	-26.52600098	-15.31399918	15.31399918	-11.86214924	-13.63687515	-10.33928204	1.0
22	-26.52600098	-15.31399918	15.31399918	-11.88250351	-13.59023571	-10.35222626	1.0
23	-26.52600098	-15.31399918	15.31399918	-11.89618969	-13.55879879	-10.36091518	1.0
[RightHandThumb4]
21	-19.54599953	-11.28499985	11.28499985	0	0	0	1.0
22	-19.54599953	-11.28499985	11.28499985	0	0	0	1.0
23	-19.54599953	-11.28499985	11.28499985	0	0	0	1.0
[LeftUpLeg]
21	82.07800293	-67.51699829	-15.99599934	-2.635845423	8.068148613	-6.453602314	1.0
22	82.07800293	-67.51699829	-15.99599934	2.189896584	9.291268349	-6.128413677	1.0
23	82.07800293	-67.51699829	-15.99599934	6.672206879	10.28660011	-5.180439472	1.0
[LeftLeg]
21	0	-443.7049866	2.845999956	21.23352051	-7.379946709	-3.679377556	1.0
22	0	-443.7049866	2.845999956	20.80260277	-7.453350067	-3.843194962	1.0
23	0	-443.7049866	2.845999956	20.22422981	-7.47379446	-4.002797604	1.0
[LeftFoot]
21	0	-444.2789917	-29.8219986	-24.10700798	-3.616285086	12.54905319	1.0
22	0	-444.2789917	-29.8219986	-29.33102417	-8.544082642	15.90320683	1.0
23	0	-444.2789917	-29.8219986	-31.9934845	-12.4761858	18.48045158	1.0
[LeftToeBase]
21	0	-87.28699493	107.1060028	-7.594044209	-3.762217239e-05	-1.282149128e-06	1.0
22	0	-87.28699493	107.1060028	-8.26068306	2.188887629e-05	9.45867896e-07	1.0
23	0	-87.28699493	107.1060028	-8.996973991	1.974824045e-06	9.415447835e-07	1.0
[RightUpLeg]
21	-82.07800293	-67.51699829	-15.99599934	-37.40507507	-1.057549596	1.248916745	1.0
22	-82.07800293	-67.51699829	-15.99599934	-41.36106491	-2.862262964	-0.1894780099	1.0
23	-82.07800293	-67.51699829	-15.99599934	-45.0474472	-3.421819925	-1.080452681	1.0
[RightLeg]
21	0	-443.7049866	2.861999989	9.791115761	-1.230133057	-0.4281272888	1.0
22	0	-443.7049866	2.861999989	8.277208328	-3.725122213	-0.8491752148	1.0
23	0	-443.7049866	2.861999989	13.05030537	-4.892900467	-1.593124986	1.0
[RightFoot]
21	0	-444.2770081	-29.83799934	-5.515018463	0.2724348903	7.360378742	1.0
22	0	-444.2770081	-29.83799934	-11.26591969	0.9579614997	10.63740635	1.0
23	0	-444.2770081	-29.83799934	-13.07189465	0.8394752741	9.855195045	1.0
[RightToeBase]
21	0	-87.28699493	107.1060028	-7.452877998	3.003705024e-05	-3.898861905e-06	1.0
22	0	-87.28699493	107.1060028	-7.08791399	4.917068964e-06	7.70891711e-06	1.0
23	0	-87.28699493	107.1060028	-8.264713287	1.586855433e-05	2.740342097e-06	1.0
[EndOfFile]
